#!OML:ASF G:\JayActor3\Patient Classification 1\Patient 1\Session 6\male.ASF
:FULLY-SPECIFIED
:DEGREES
623
root 16.0724 15.9099 -20.4998 170.949 -29.4691 -171.98
lowerback 8.37558 -1.16396 4.48461
upperback 3.1283 -1.37247 0.982989
thorax -1.52517 -0.756183 -1.36917
lowerneck -9.08803 1.18365 3.3512
upperneck -3.43923 0.975246 0.605883
head 0.452845 0.33991 -0.339312
rclavicle -5.96354e-016 9.14409e-015
rhumerus -29.4622 15.3678 -93.1653
rradius 61.8931
rwrist -12.0403
rhand -19.8956 -11.6173
rfingers 7.12502
rthumb 6.44059 -41.4994
lclavicle -5.96354e-016 9.14409e-015
lhumerus -44.7092 23.1966 73.2241
lradius 7.39545
lwrist 6.44309
lhand -24.7281 18.0888
lfingers 7.12502
lthumb 1.77414 48.0611
rfemur -9.39919 14.3359 17.7096
rtibia 30.0309
rfoot -18.3972 -1.24498
rtoes -15.842
lfemur -21.6614 2.97984 -8.85736
ltibia 24.4664
lfoot -19.3167 -4.28977
ltoes -18.3449
624
root 15.8923 15.8837 -20.4723 171.089 -28.5283 -172.352
lowerback 8.4544 -1.20739 4.06674
upperback 3.25125 -1.4729 0.968305
thorax -1.43877 -0.809085 -1.14055
lowerneck -8.6594 1.5442 3.68182
upperneck -4.03271 1.42928 0.367041
head 0.208016 0.541562 -0.455458
rclavicle -6.82328e-014 1.51076e-014
rhumerus -28.7549 16.5185 -93.0614
rradius 62.6513
rwrist -12.2483
rhand -20.2251 -11.6405
rfingers 7.12502
rthumb 6.12253 -41.532
lclavicle -6.82328e-014 1.51076e-014
lhumerus -47.1361 23.6354 72.5637
lradius 8.08096
lwrist 5.66709
lhand -23.4556 17.3981
lfingers 7.12502
lthumb 3.00307 47.3568
rfemur -9.46557 14.5836 16.8512
rtibia 30.3197
rfoot -18.2687 -0.549418
rtoes -16.1331
lfemur -21.0537 4.29675 -9.61139
ltibia 24.2023
lfoot -18.2484 -4.94666
ltoes -18.6841
625
root 15.7114 15.8634 -20.4407 171.21 -27.6657 -172.766
lowerback 8.53496 -1.26018 3.60684
upperback 3.374 -1.58944 0.948
thorax -1.35206 -0.871039 -0.892577
lowerneck -8.1848 1.87284 3.97446
upperneck -4.5756 1.8517 0.138754
head -0.0249123 0.73054 -0.566109
rclavicle 2.18166e-014 -1.63003e-014
rhumerus -28.0065 17.5123 -92.9109
rradius 63.2287
rwrist -12.2947
rhand -20.6332 -11.6241
rfingers 7.12502
rthumb 5.72849 -41.5267
lclavicle 2.18166e-014 -1.63003e-014
lhumerus -49.3126 24.0872 71.9962
lradius 8.47454
lwrist 4.60498
lhand -22.3 16.7937
lfingers 7.12502
lthumb 4.11908 46.7336
rfemur -9.48964 14.7972 15.9388
rtibia 30.5592
rfoot -18.1224 0.0137555
rtoes -16.527
lfemur -20.4527 5.59655 -10.4633
ltibia 24.0216
lfoot -16.9479 -5.78906
ltoes -18.6898
626
root 15.5298 15.8497 -20.4064 171.342 -26.8893 -173.248
lowerback 8.60821 -1.31496 3.07803
upperback 3.48437 -1.7133 0.915645
thorax -1.27126 -0.937511 -0.617718
lowerneck -7.69596 2.16242 4.22001
upperneck -5.03328 2.23318 -0.0722791
head -0.232183 0.903729 -0.668012
rclavicle 7.2954e-014 1.59028e-015
rhumerus -27.2605 18.3261 -92.7307
rradius 63.6324
rwrist -12.1688
rhand -21.1088 -11.5644
rfingers 7.12502
rthumb 5.26933 -41.4789
lclavicle 7.2954e-014 1.59028e-015
lhumerus -51.2163 24.5383 71.5299
lradius 8.57994
lwrist 3.22476
lhand -21.1682 16.3461
lfingers 7.12502
lthumb 5.21191 46.262
rfemur -9.49616 15.021 14.9614
rtibia 30.7803
rfoot -18.0043 0.324197
rtoes -17.1365
lfemur -19.895 6.85672 -11.4044
ltibia 23.8374
lfoot -15.4386 -6.7806
ltoes -18.1012
627
root 15.3488 15.8429 -20.3702 171.498 -26.1789 -173.772
lowerback 8.66487 -1.35844 2.49819
upperback 3.56606 -1.82407 0.883102
thorax -1.2071 -0.998023 -0.315716
lowerneck -7.22515 2.40501 4.40004
upperneck -5.36784 2.56361 -0.257867
head -0.39928 1.05788 -0.754753
rclavicle -1.42131e-014 1.70955e-014
rhumerus -26.5613 18.9361 -92.5263
rradius 63.8685
rwrist -11.856
rhand -21.6341 -11.4479
rfingers 7.12502
rthumb 4.76211 -41.3743
lclavicle -1.42131e-014 1.70955e-014
lhumerus -52.8364 24.9754 71.1818
lradius 8.41325
lwrist 1.52249
lhand -20.0586 16.0738
lfingers 7.12502
lthumb 6.28325 45.9606
rfemur -9.52758 15.2916 13.9624
rtibia 31.0259
rfoot -17.953 0.310447
rtoes -17.9915
lfemur -19.414 8.06905 -12.3896
ltibia 23.6203
lfoot -13.8179 -7.76146
ltoes -16.8912
628
root 15.1693 15.8418 -20.3327 171.67 -25.5145 -174.286
lowerback 8.69575 -1.38162 1.92512
upperback 3.60919 -1.90434 0.855694
thorax -1.16591 -1.043 -0.0152034
lowerneck -6.79966 2.59499 4.51384
upperneck -5.54664 2.83428 -0.405061
head -0.513253 1.18971 -0.820512
rclavicle -2.60408e-014 1.19271e-014
rhumerus -25.947 19.3185 -92.3156
rradius 63.9522
rwrist -11.371
rhand -22.1805 -11.336
rfingers 7.12502
rthumb 4.23443 -41.2736
lclavicle -2.60408e-014 1.19271e-014
lhumerus -54.1604 25.3749 70.9545
lradius 8.00686
lwrist -0.480969
lhand -18.9475 16.0209
lfingers 7.12502
lthumb 7.35582 45.8731
rfemur -9.61644 15.6156 13.0166
rtibia 31.3433
rfoot -18.0127 -0.0731586
rtoes -18.9541
lfemur -19.0193 9.2556 -13.3674
ltibia 23.3924
lfoot -12.1877 -8.61659
ltoes -15.0509
629
root 14.9923 15.8451 -20.2944 171.844 -24.8702 -174.731
lowerback 8.68384 -1.37861 1.42543
upperback 3.61159 -1.94072 0.842248
thorax -1.14297 -1.06472 0.253876
lowerneck -6.42983 2.73017 4.56731
upperneck -5.55588 3.04093 -0.512164
head -0.56866 1.29728 -0.86415
rclavicle -1.66482e-014 -1.59028e-015
rhumerus -25.44 19.4809 -92.1106
rradius 63.8977
rwrist -10.7356
rhand -22.6988 -11.2272
rfingers 7.12502
rthumb 3.73393 -41.1742
lclavicle -1.66482e-014 -1.59028e-015
lhumerus -55.1667 25.7327 70.8569
lradius 7.37962
lwrist -2.68118
lhand -17.8428 16.1753
lfingers 7.12502
lthumb 8.42201 45.9874
rfemur -9.78722 15.9527 12.2029
rtibia 31.773
rfoot -18.211 -0.807293
rtoes -19.8596
lfemur -18.7029 10.4145 -14.2824
ltibia 23.2036
lfoot -10.7609 -9.31955
ltoes -12.8909
630
root 14.8175 15.8513 -20.2559 171.996 -24.2182 -175.054
lowerback 8.61077 -1.34591 1.06454
upperback 3.58109 -1.92379 0.848537
thorax -1.12314 -1.05779 0.459257
lowerneck -6.11285 2.81573 4.56557
upperneck -5.40033 3.18929 -0.572894
head -0.567544 1.38279 -0.883488
rclavicle -4.1869e-014 -2.78299e-015
rhumerus -25.0545 19.4454 -91.9182
rradius 63.7287
rwrist -10.0083
rhand -23.1637 -11.1404
rfingers 7.12502
rthumb 3.28497 -41.0948
lclavicle -4.1869e-014 -2.78299e-015
lhumerus -55.8425 26.0475 70.8864
lradius 6.55781
lwrist -4.93789
lhand -16.7788 16.4845
lfingers 7.12502
lthumb 9.44878 46.2527
rfemur -10.044 16.2179 11.5913
rtibia 32.345
rfoot -18.5759 -1.78718
rtoes -20.5437
lfemur -18.4495 11.5275 -15.0829
ltibia 23.097
lfoot -9.70224 -9.91336
ltoes -10.7802
631
root 14.6444 15.8599 -20.2174 172.103 -23.5544 -175.221
lowerback 8.46178 -1.28518 0.887753
upperback 3.53306 -1.85339 0.877485
thorax -1.08461 -1.02208 0.57799
lowerneck -5.83554 2.85362 4.52039
upperneck -5.10955 3.27984 -0.594819
head -0.521088 1.44474 -0.882768
rclavicle 1.52816e-014 8.34896e-015
rhumerus -24.7784 19.2434 -91.7408
rradius 63.461
rwrist -9.25926
rhand -23.5679 -11.0904
rfingers 7.12502
rthumb 2.89466 -41.0505
lclavicle 1.52816e-014 8.34896e-015
lhumerus -56.1754 26.3157 71.0409
lradius 5.57366
lwrist -7.07064
lhand -15.822 16.8942
lfingers 7.12502
lthumb 10.3718 46.6184
rfemur -10.3751 16.2593 11.2278
rtibia 33.0806
rfoot -19.0834 -2.86294
rtoes -20.971
lfemur -18.2393 12.5188 -15.7297
ltibia 23.0818
lfoot -9.04473 -10.4037
ltoes -9.00304
632
root 14.4735 15.871 -20.1782 172.147 -22.9075 -175.218
lowerback 8.24966 -1.20773 0.903186
upperback 3.48063 -1.74563 0.931363
thorax -1.02098 -0.96616 0.609866
lowerneck -5.58365 2.85056 4.43787
upperneck -4.72177 3.31942 -0.579439
head -0.443347 1.48454 -0.863769
rclavicle 4.1546e-014 -2.38542e-015
rhumerus -24.5938 18.9091 -91.5794
rradius 63.1101
rwrist -8.5485
rhand -23.8906 -11.0656
rfingers 7.12502
rthumb 2.58303 -41.0298
lclavicle 4.1546e-014 -2.38542e-015
lhumerus -56.1954 26.5262 71.2993
lradius 4.50092
lwrist -8.94527
lhand -15.0369 17.3434
lfingers 7.12502
lthumb 11.1292 47.0283
rfemur -10.7535 15.9559 11.1431
rtibia 33.9963
rfoot -19.7105 -3.89727
rtoes -21.0897
lfemur -18.064 13.3356 -16.2037
ltibia 23.1303
lfoot -8.64529 -10.8335
ltoes -7.39323
633
root 14.306 15.8843 -20.1372 172.121 -22.3207 -175.062
lowerback 8.00736 -1.12545 1.07805
upperback 3.43036 -1.62071 1.00956
thorax -0.941871 -0.900774 0.575642
lowerneck -5.34692 2.8121 4.32617
upperneck -4.27842 3.31287 -0.53311
head -0.348519 1.50261 -0.830343
rclavicle 4.72114e-016 -1.07344e-014
rhumerus -24.4914 18.4732 -91.4306
rradius 62.6994
rwrist -7.92425
rhand -24.1292 -11.0642
rfingers 7.12502
rthumb 2.35257 -41.031
lclavicle 4.72114e-016 -1.07344e-014
lhumerus -56.0325 26.6507 71.628
lradius 3.59252
lwrist -10.3888
lhand -14.4121 17.8005
lfingers 7.12502
lthumb 11.7317 47.452
rfemur -11.1501 15.2187 11.3331
rtibia 35.1067
rfoot -20.4143 -4.75824
rtoes -20.9041
lfemur -17.9015 13.9337 -16.5184
ltibia 23.1925
lfoot -8.35848 -11.1732
ltoes -5.87572
634
root 14.1435 15.8994 -20.0936 172.041 -21.8332 -174.799
lowerback 7.76252 -1.04835 1.34629
upperback 3.378 -1.49744 1.10351
thorax -0.864674 -0.835715 0.506144
lowerneck -5.11116 2.74554 4.19538
upperneck -3.81307 3.2683 -0.460034
head -0.248785 1.50148 -0.785957
rclavicle 9.14409e-015 -1.19271e-015
rhumerus -24.4633 17.9738 -91.3034
rradius 62.2438
rwrist -7.43313
rhand -24.2733 -11.0809
rfingers 7.12502
rthumb 2.21345 -41.0491
lclavicle 9.14409e-015 -1.19271e-015
lhumerus -55.744 26.6716 71.9884
lradius 2.90702
lwrist -11.347
lhand -14.0109 18.2221
lfingers 7.12502
lthumb 12.1186 47.8512
rfemur -11.556 14.0246 11.7571
rtibia 36.4248
rfoot -21.137 -5.36553
rtoes -20.4652
lfemur -17.7343 14.3538 -16.7277
ltibia 23.2184
lfoot -8.10924 -11.4159
ltoes -4.48292
635
root 13.9863 15.9158 -20.047 171.918 -21.4615 -174.465
lowerback 7.54674 -0.983626 1.6472
upperback 3.31389 -1.38911 1.21833
thorax -0.814948 -0.778227 0.442577
lowerneck -4.88178 2.66165 4.04151
upperneck -3.32991 3.19907 -0.370219
head -0.144008 1.48753 -0.732899
rclavicle 1.14301e-015 8.34896e-015
rhumerus -24.5092 17.4645 -91.1858
rradius 61.7543
rwrist -7.09396
rhand -24.2959 -11.0867
rfingers 7.12502
rthumb 2.19159 -41.0551
lclavicle 1.14301e-015 8.34896e-015
lhumerus -55.4057 26.5901 72.3523
lradius 2.50502
lwrist -11.7571
lhand -13.8378 18.5391
lfingers 7.12502
lthumb 12.2855 48.1582
rfemur -11.9701 12.3993 12.3701
rtibia 37.9619
rfoot -21.8006 -5.68646
rtoes -20.0391
lfemur -17.5371 14.5855 -16.8746
ltibia 23.1702
lfoot -7.93906 -11.4985
ltoes -3.36673
636
root 13.8333 15.9327 -19.9974 171.754 -21.1922 -174.082
lowerback 7.3666 -0.929381 1.9648
upperback 3.23831 -1.29412 1.34824
thorax -0.795938 -0.727839 0.387716
lowerneck -4.66141 2.56713 3.87145
upperneck -2.84354 3.11266 -0.26369
head -0.0378266 1.46375 -0.672377
rclavicle 2.26118e-014 3.97569e-016
rhumerus -24.6164 16.9791 -91.0746
rradius 61.2379
rwrist -6.91458
rhand -24.195 -11.1164
rfingers 7.12502
rthumb 2.28901 -41.0839
lclavicle 2.26118e-014 3.97569e-016
lhumerus -55.058 26.4004 72.6938
lradius 2.41337
lwrist -11.6248
lhand -13.9233 18.7077
lfingers 7.12502
lthumb 12.2031 48.3317
rfemur -12.3952 10.4199 13.1377
rtibia 39.7222
rfoot -22.3404 -5.71584
rtoes -19.6944
lfemur -17.2901 14.6044 -16.9732
ltibia 23.0353
lfoot -7.87217 -11.3867
ltoes -2.54988
